<svg width="24" height="21" viewBox="0 0 24 21" fill="none" xmlns="http://www.w3.org/2000/svg">
    <path d="M10.29 2.86002L1.82002 17C1.64539 17.3024 1.55299 17.6453 1.55201 17.9945C1.55103 18.3438 1.64151 18.6872 1.81445 18.9905C1.98738 19.2939 2.23675 19.5468 2.53773 19.7239C2.83871 19.901 3.18082 19.9962 3.53002 20H20.47C20.8192 19.9962 21.1613 19.901 21.4623 19.7239C21.7633 19.5468 22.0127 19.2939 22.1856 18.9905C22.3585 18.6872 22.449 18.3438 22.448 17.9945C22.4471 17.6453 22.3547 17.3024 22.18 17L13.71 2.86002C13.5318 2.56613 13.2807 2.32314 12.9812 2.15451C12.6817 1.98587 12.3438 1.89728 12 1.89728C11.6563 1.89728 11.3184 1.98587 11.0188 2.15451C10.7193 2.32314 10.4683 2.56613 10.29 2.86002V2.86002Z" stroke="#F03D3E" stroke-width="2" stroke-linecap="round" stroke-linejoin="round"/>
    <path d="M12 8V12" stroke="#F03D3E" stroke-width="2" stroke-linecap="round" stroke-linejoin="round"/>
    <path d="M12 15V15.5" stroke="#F03D3E" stroke-width="2" stroke-linecap="round" stroke-linejoin="round"/>
</svg>
